<svg xmlns="http://www.w3.org/2000/svg" xmlns:xlink="http://www.w3.org/1999/xlink" width="500" zoomAndPan="magnify" viewBox="0 0 375 374.999991" height="500" preserveAspectRatio="xMidYMid meet" version="1.0"><path fill="#ffffff" d="M 187.5 195 C 241.261719 195 285 151.261719 285 97.5 C 285 43.738281 241.261719 0 187.5 0 C 133.738281 0 90 43.738281 90 97.5 C 90 151.261719 133.738281 195 187.5 195 Z M 187.5 195 " fill-opacity="1" fill-rule="nonzero"/><path fill="#ffffff" d="M 285.667969 207.742188 C 282.96875 206.078125 279.511719 206.296875 277.019531 208.296875 C 251.386719 229.035156 220.425781 240 187.5 240 C 154.574219 240 123.621094 229.035156 97.988281 208.296875 C 95.519531 206.296875 92.046875 206.070312 89.339844 207.742188 C 33.398438 242.191406 0 301.914062 0 367.5 C 0 371.648438 3.359375 375 7.5 375 L 367.5 375 C 371.648438 375 375 371.648438 375 367.5 C 375 301.914062 341.601562 242.191406 285.667969 207.742188 Z M 285.667969 207.742188 " fill-opacity="1" fill-rule="nonzero"/></svg>